<svg xmlns="http://www.w3.org/2000/svg" height="512pt" version="1.1" viewBox="0 0 512 512.00087" width="512pt">
<g id="surface1">
<path d="M 442.964844 133.375 C 441.03125 136.597656 438.683594 139.640625 435.90625 142.417969 C 432.347656 145.976562 428.355469 148.832031 424.101562 151.007812 C 433.855469 166.507812 441.554688 183.429688 446.785156 201.40625 C 450.277344 213.402344 461.300781 221.628906 473.792969 221.628906 C 475.660156 221.628906 477.476562 221.441406 479.226562 221.101562 C 480.046875 216.902344 479.914062 212.421875 478.609375 207.941406 C 470.769531 180.988281 458.621094 155.871094 442.964844 133.375 Z M 442.964844 133.375 " style=" stroke:none;fill-rule:nonzero;fill:rgb(62.745098%,89.803922%,34.117647%);fill-opacity:1;" />
<path d="M 304.0625 33.390625 C 299.578125 32.085938 295.101562 31.953125 290.898438 32.773438 C 290.558594 34.523438 290.371094 36.339844 290.371094 38.207031 C 290.371094 50.699219 298.597656 61.722656 310.59375 65.214844 C 328.570312 70.445312 345.492188 78.144531 360.992188 87.898438 C 363.167969 83.648438 366.023438 79.652344 369.585938 76.09375 C 372.359375 73.316406 375.402344 70.96875 378.625 69.035156 C 356.128906 53.382812 331.015625 41.230469 304.0625 33.390625 Z M 304.0625 33.390625 " style=" stroke:none;fill-rule:nonzero;fill:rgb(62.745098%,89.803922%,34.117647%);fill-opacity:1;" />
<path d="M 221.628906 473.792969 C 221.628906 461.300781 213.402344 450.277344 201.40625 446.789062 C 183.429688 441.554688 166.507812 433.855469 151.007812 424.101562 C 148.832031 428.355469 145.976562 432.347656 142.417969 435.90625 C 139.273438 439.046875 135.792969 441.636719 132.09375 443.703125 C 154.671875 459.464844 179.898438 471.691406 206.984375 479.570312 C 211.75 480.957031 216.507812 481.011719 220.9375 480.011719 C 221.382812 478.015625 221.628906 475.941406 221.628906 473.792969 Z M 221.628906 473.792969 " style=" stroke:none;fill-rule:nonzero;fill:rgb(62.745098%,89.803922%,34.117647%);fill-opacity:1;" />
<path d="M 68.300781 379.90625 C 70.367188 376.210938 72.957031 372.726562 76.097656 369.585938 C 79.65625 366.027344 83.648438 363.167969 87.898438 360.992188 C 78.148438 345.492188 70.449219 328.570312 65.214844 310.59375 C 61.722656 298.601562 50.703125 290.375 38.210938 290.375 C 36.0625 290.375 33.984375 290.621094 31.992188 291.066406 C 30.992188 295.492188 31.046875 300.253906 32.433594 305.019531 C 40.308594 332.101562 52.539062 357.328125 68.300781 379.90625 Z M 68.300781 379.90625 " style=" stroke:none;fill-rule:nonzero;fill:rgb(62.745098%,89.803922%,34.117647%);fill-opacity:1;" />
<path d="M 369.585938 435.90625 C 366.027344 432.347656 363.167969 428.355469 360.992188 424.101562 C 345.492188 433.855469 328.570312 441.554688 310.59375 446.785156 C 298.601562 450.277344 290.375 461.300781 290.375 473.792969 C 290.375 473.890625 290.382812 473.984375 290.382812 474.082031 C 295.515625 475.78125 301.226562 476.023438 306.9375 474.359375 C 332.058594 467.054688 355.582031 456.007812 376.875 441.867188 C 374.300781 440.160156 371.855469 438.171875 369.585938 435.90625 Z M 369.585938 435.90625 " style=" stroke:none;fill-rule:nonzero;fill:rgb(99.607843%,56.078431%,55.294118%);fill-opacity:1;" />
<path d="M 428.519531 363.570312 C 431.128906 365.289062 433.609375 367.289062 435.90625 369.585938 C 438.652344 372.332031 440.980469 375.339844 442.902344 378.523438 C 459.980469 354.984375 473.164062 328.433594 481.488281 299.8125 C 482.273438 297.113281 482.628906 294.417969 482.613281 291.78125 C 479.855469 290.875 476.898438 290.375 473.792969 290.375 C 461.300781 290.375 450.28125 298.601562 446.789062 310.597656 C 441.957031 327.191406 435.019531 342.882812 426.3125 357.394531 C 427.195312 359.40625 427.933594 361.472656 428.519531 363.570312 Z M 428.519531 363.570312 " style=" stroke:none;fill-rule:nonzero;fill:rgb(99.607843%,56.078431%,55.294118%);fill-opacity:1;" />
<path d="M 210.355469 29.808594 C 181.84375 38.101562 155.386719 51.214844 131.914062 68.203125 C 135.679688 70.28125 139.222656 72.902344 142.414062 76.097656 C 144.65625 78.339844 146.621094 80.75 148.308594 83.292969 C 150.410156 83.96875 152.46875 84.792969 154.472656 85.773438 C 169.019531 77.027344 184.761719 70.0625 201.40625 65.214844 C 213.402344 61.722656 221.628906 50.703125 221.628906 38.210938 C 221.628906 34.863281 221.042969 31.683594 220 28.742188 C 216.855469 28.539062 213.609375 28.859375 210.355469 29.808594 Z M 210.355469 29.808594 " style=" stroke:none;fill-rule:nonzero;fill:rgb(99.607843%,56.078431%,55.294118%);fill-opacity:1;" />
<path d="M 65.214844 201.40625 C 70.449219 183.429688 78.148438 166.507812 87.898438 151.007812 C 83.648438 148.832031 79.65625 145.976562 76.097656 142.417969 C 73.3125 139.632812 70.957031 136.582031 69.019531 133.351562 C 54.535156 154.925781 43.234375 178.816406 35.804688 204.355469 C 34.074219 210.3125 34.414062 216.261719 36.3125 221.5625 C 36.9375 221.605469 37.570312 221.628906 38.207031 221.628906 C 50.703125 221.628906 61.722656 213.402344 65.214844 201.40625 Z M 65.214844 201.40625 " style=" stroke:none;fill-rule:nonzero;fill:rgb(99.607843%,56.078431%,55.294118%);fill-opacity:1;" />
<path d="M 360.96875 87.949219 C 351.976562 105.566406 354.84375 127.675781 369.585938 142.417969 C 382.375 155.207031 400.71875 159.054688 416.855469 153.976562 C 425.847656 136.359375 422.980469 114.25 408.238281 99.507812 C 395.445312 86.714844 377.105469 82.871094 360.96875 87.949219 Z M 360.96875 87.949219 " style=" stroke:none;fill-rule:nonzero;fill:rgb(98.823529%,77.647059%,61.568627%);fill-opacity:1;" />
<path d="M 104.429688 90.097656 C 86.308594 108.21875 86.128906 137.476562 103.871094 155.832031 C 117.597656 157.410156 131.886719 152.945312 142.417969 142.417969 C 160.539062 124.292969 160.714844 95.039062 142.972656 76.683594 C 129.246094 75.105469 114.957031 79.566406 104.429688 90.097656 Z M 104.429688 90.097656 " style=" stroke:none;fill-rule:nonzero;fill:rgb(98.823529%,77.647059%,61.568627%);fill-opacity:1;" />
<path d="M 94.8125 358.132812 C 84.292969 376.097656 86.730469 399.5625 102.140625 414.96875 C 115.019531 427.847656 133.523438 431.65625 149.746094 426.421875 C 160.265625 408.457031 157.824219 384.992188 142.417969 369.585938 C 129.539062 356.703125 111.03125 352.898438 94.8125 358.132812 Z M 94.8125 358.132812 " style=" stroke:none;fill-rule:nonzero;fill:rgb(98.823529%,77.647059%,61.568627%);fill-opacity:1;" />
<path d="M 369.585938 369.585938 C 355.390625 383.78125 352.207031 404.8125 360.019531 422.082031 C 377.5 430.582031 399.164062 427.585938 413.679688 413.066406 C 427.875 398.871094 431.058594 377.839844 423.246094 360.570312 C 405.765625 352.070312 384.101562 355.066406 369.585938 369.585938 Z M 369.585938 369.585938 " style=" stroke:none;fill-rule:nonzero;fill:rgb(98.823529%,77.647059%,61.568627%);fill-opacity:1;" />
<path d="M 302.582031 166.152344 C 284.234375 166.152344 267.6875 174.585938 256 188.097656 C 249.808594 180.9375 242.238281 175.222656 233.773438 171.414062 C 217.242188 185.773438 206.625 207.933594 206.625 232.820312 C 206.625 268.914062 250.441406 313.3125 285.914062 343.347656 C 318.699219 316.886719 366.703125 272.042969 366.703125 236.304688 C 366.703125 197.558594 337.992188 166.152344 302.582031 166.152344 Z M 302.582031 166.152344 " style=" stroke:none;fill-rule:nonzero;fill:rgb(100%,36.470588%,36.470588%);fill-opacity:1;" />
<path d="M 307.800781 74.816406 C 321.972656 78.941406 335.628906 84.757812 348.519531 92.105469 C 342.359375 111.699219 347.015625 133.988281 362.511719 149.488281 C 373.605469 160.578125 388.175781 166.125 402.742188 166.125 C 408.535156 166.125 414.320312 165.234375 419.894531 163.480469 C 427.242188 176.371094 433.058594 190.027344 437.183594 204.203125 C 441.886719 220.351562 456.9375 231.628906 473.792969 231.628906 C 485.925781 231.628906 497.058594 226.0625 504.34375 216.355469 C 511.605469 206.683594 513.832031 194.488281 510.460938 182.898438 C 498.007812 140.09375 474.675781 100.714844 442.980469 69.019531 C 411.285156 37.324219 371.90625 13.992188 329.101562 1.539062 C 317.511719 -1.832031 305.320312 0.394531 295.648438 7.65625 C 285.9375 14.941406 280.371094 26.074219 280.371094 38.207031 C 280.371094 55.0625 291.652344 70.113281 307.800781 74.816406 Z M 376.65625 135.347656 C 362.269531 120.960938 362.269531 97.554688 376.65625 83.167969 C 383.847656 75.976562 393.296875 72.378906 402.746094 72.378906 C 410.9375 72.378906 419.128906 75.085938 425.851562 80.496094 C 427.765625 82.351562 429.648438 84.234375 431.503906 86.148438 C 443.152344 100.625 442.261719 121.914062 428.832031 135.347656 C 414.449219 149.730469 391.042969 149.730469 376.65625 135.347656 Z M 488.351562 204.347656 C 484.878906 208.976562 479.570312 211.628906 473.792969 211.628906 C 465.777344 211.628906 458.617188 206.277344 456.386719 198.613281 C 451.886719 183.15625 445.589844 168.253906 437.632812 154.183594 C 439.484375 152.742188 441.273438 151.1875 442.976562 149.488281 C 451.453125 141.011719 456.679688 130.503906 458.675781 119.515625 C 472.949219 140.5 484.058594 163.734375 491.257812 188.484375 C 492.855469 193.976562 491.796875 199.757812 488.351562 204.347656 Z M 307.652344 23.648438 C 312.242188 20.203125 318.027344 19.144531 323.515625 20.742188 C 348.269531 27.941406 371.5 39.050781 392.484375 53.324219 C 381.5 55.324219 370.988281 60.550781 362.511719 69.023438 C 360.8125 70.726562 359.257812 72.515625 357.820312 74.367188 C 343.746094 66.410156 328.847656 60.113281 313.390625 55.613281 C 305.726562 53.382812 300.371094 46.222656 300.371094 38.207031 C 300.371094 32.429688 303.027344 27.121094 307.652344 23.648438 Z M 307.652344 23.648438 " style=" stroke:none;fill-rule:nonzero;fill:rgb(0%,0%,0%);fill-opacity:1;" />
<path d="M 38.207031 231.628906 C 55.0625 231.628906 70.113281 220.351562 74.816406 204.203125 C 78.941406 190.027344 84.757812 176.371094 92.105469 163.480469 C 97.679688 165.234375 103.464844 166.125 109.257812 166.125 C 123.828125 166.125 138.398438 160.578125 149.488281 149.484375 C 164.988281 133.984375 169.644531 111.699219 163.484375 92.105469 C 176.375 84.757812 190.027344 78.941406 204.203125 74.8125 C 220.351562 70.113281 231.628906 55.058594 231.628906 38.207031 C 231.628906 26.074219 226.0625 14.9375 216.355469 7.652344 C 206.683594 0.394531 194.492188 -1.832031 182.898438 1.539062 C 140.09375 13.992188 100.714844 37.324219 69.019531 69.019531 C 37.324219 100.714844 13.992188 140.09375 1.539062 182.898438 C -1.832031 194.488281 0.394531 206.683594 7.65625 216.355469 C 14.941406 226.0625 26.078125 231.628906 38.207031 231.628906 Z M 135.347656 135.347656 C 120.960938 149.730469 97.554688 149.730469 83.167969 135.347656 C 69.738281 121.914062 68.851562 100.625 80.496094 86.148438 C 82.351562 84.234375 84.234375 82.351562 86.148438 80.496094 C 92.871094 75.089844 101.0625 72.378906 109.257812 72.378906 C 118.703125 72.378906 128.152344 75.976562 135.34375 83.167969 C 149.730469 97.554688 149.730469 120.960938 135.347656 135.347656 Z M 188.484375 20.742188 C 193.976562 19.144531 199.757812 20.203125 204.347656 23.648438 C 208.976562 27.121094 211.628906 32.429688 211.628906 38.207031 C 211.628906 46.226562 206.277344 53.382812 198.613281 55.613281 C 183.15625 60.113281 168.253906 66.410156 154.183594 74.367188 C 152.742188 72.515625 151.1875 70.726562 149.488281 69.023438 C 141.011719 60.550781 130.503906 55.324219 119.515625 53.324219 C 140.5 39.050781 163.734375 27.941406 188.484375 20.742188 Z M 20.742188 188.484375 C 27.941406 163.734375 39.050781 140.5 53.324219 119.515625 C 55.324219 130.503906 60.550781 141.011719 69.023438 149.488281 C 70.726562 151.1875 72.515625 152.742188 74.371094 154.183594 C 66.410156 168.253906 60.113281 183.15625 55.613281 198.609375 C 53.382812 206.273438 46.222656 211.628906 38.207031 211.628906 C 32.429688 211.628906 27.121094 208.976562 23.648438 204.347656 C 20.207031 199.757812 19.144531 193.976562 20.742188 188.484375 Z M 20.742188 188.484375 " style=" stroke:none;fill-rule:nonzero;fill:rgb(0%,0%,0%);fill-opacity:1;" />
<path d="M 204.203125 437.1875 C 190.027344 433.058594 176.371094 427.242188 163.480469 419.894531 C 169.644531 400.300781 164.988281 378.015625 149.488281 362.511719 C 133.988281 347.015625 111.699219 342.359375 92.105469 348.519531 C 84.757812 335.628906 78.941406 321.972656 74.816406 307.800781 C 70.113281 291.652344 55.0625 280.371094 38.207031 280.371094 C 26.078125 280.371094 14.941406 285.9375 7.65625 295.648438 C 0.398438 305.316406 -1.832031 317.511719 1.539062 329.101562 C 13.992188 371.90625 37.328125 411.285156 69.019531 442.980469 C 100.714844 474.675781 140.09375 498.011719 182.898438 510.464844 C 186.445312 511.492188 190.042969 512 193.613281 512 C 201.710938 512 209.640625 509.386719 216.355469 504.347656 C 226.0625 497.0625 231.628906 485.925781 231.628906 473.792969 C 231.628906 456.941406 220.351562 441.886719 204.203125 437.1875 Z M 135.347656 376.65625 C 149.730469 391.042969 149.730469 414.449219 135.347656 428.832031 C 121.917969 442.265625 100.625 443.152344 86.152344 431.503906 C 84.238281 429.652344 82.351562 427.765625 80.496094 425.851562 C 68.851562 411.378906 69.738281 390.085938 83.167969 376.65625 C 90.363281 369.464844 99.808594 365.867188 109.257812 365.867188 C 118.707031 365.867188 128.152344 369.464844 135.347656 376.65625 Z M 23.652344 307.652344 C 27.125 303.027344 32.429688 300.371094 38.210938 300.371094 C 46.226562 300.371094 53.382812 305.726562 55.613281 313.390625 C 60.113281 328.84375 66.414062 343.75 74.371094 357.820312 C 72.519531 359.257812 70.726562 360.8125 69.027344 362.511719 C 60.550781 370.988281 55.324219 381.5 53.324219 392.484375 C 39.054688 371.5 27.941406 348.265625 20.742188 323.515625 C 19.144531 318.023438 20.207031 312.242188 23.652344 307.652344 Z M 204.347656 488.351562 C 199.757812 491.796875 193.976562 492.859375 188.484375 491.257812 C 163.734375 484.058594 140.5 472.949219 119.515625 458.675781 C 130.503906 456.675781 141.011719 451.449219 149.488281 442.976562 C 151.1875 441.273438 152.742188 439.484375 154.183594 437.632812 C 168.253906 445.589844 183.15625 451.890625 198.613281 456.386719 C 206.277344 458.617188 211.628906 465.777344 211.628906 473.792969 C 211.628906 479.570312 208.976562 484.878906 204.347656 488.351562 Z M 204.347656 488.351562 " style=" stroke:none;fill-rule:nonzero;fill:rgb(0%,0%,0%);fill-opacity:1;" />
<path d="M 473.792969 280.371094 C 456.941406 280.371094 441.886719 291.652344 437.1875 307.800781 C 433.058594 321.972656 427.242188 335.628906 419.894531 348.519531 C 400.300781 342.359375 378.015625 347.015625 362.511719 362.511719 C 347.011719 378.015625 342.359375 400.300781 348.519531 419.894531 C 335.628906 427.242188 321.972656 433.058594 307.796875 437.1875 C 291.648438 441.886719 280.371094 456.941406 280.371094 473.792969 C 280.371094 485.925781 285.9375 497.058594 295.644531 504.347656 C 302.359375 509.386719 310.289062 512 318.390625 512 C 321.957031 512 325.558594 511.492188 329.101562 510.460938 C 371.90625 498.011719 411.285156 474.675781 442.980469 442.980469 C 474.675781 411.285156 498.011719 371.90625 510.460938 329.101562 C 513.832031 317.511719 511.605469 305.316406 504.347656 295.644531 C 497.058594 285.941406 485.925781 280.371094 473.792969 280.371094 Z M 376.65625 376.65625 C 383.847656 369.464844 393.296875 365.867188 402.746094 365.867188 C 412.195312 365.867188 421.640625 369.464844 428.835938 376.65625 C 442.265625 390.085938 443.152344 411.378906 431.503906 425.851562 C 429.652344 427.765625 427.765625 429.652344 425.851562 431.503906 C 411.378906 443.152344 390.085938 442.265625 376.65625 428.832031 C 362.269531 414.449219 362.269531 391.042969 376.65625 376.65625 Z M 323.515625 491.257812 C 318.023438 492.855469 312.246094 491.796875 307.652344 488.351562 C 303.027344 484.878906 300.371094 479.570312 300.371094 473.792969 C 300.371094 465.777344 305.726562 458.617188 313.390625 456.386719 C 328.847656 451.886719 343.746094 445.589844 357.820312 437.632812 C 359.257812 439.484375 360.8125 441.273438 362.511719 442.976562 C 370.988281 451.449219 381.5 456.675781 392.484375 458.675781 C 371.5 472.949219 348.269531 484.058594 323.515625 491.257812 Z M 491.257812 323.515625 C 484.058594 348.265625 472.949219 371.5 458.675781 392.484375 C 456.675781 381.5 451.453125 370.988281 442.976562 362.515625 C 441.273438 360.8125 439.484375 359.257812 437.632812 357.820312 C 445.589844 343.75 451.890625 328.847656 456.386719 313.390625 C 458.617188 305.726562 465.777344 300.371094 473.792969 300.371094 C 479.570312 300.371094 484.878906 303.027344 488.351562 307.652344 C 491.796875 312.242188 492.855469 318.023438 491.257812 323.515625 Z M 491.257812 323.515625 " style=" stroke:none;fill-rule:nonzero;fill:rgb(0%,0%,0%);fill-opacity:1;" />
<path d="M 376.699219 236.304688 C 376.699219 192.109375 343.453125 156.152344 302.582031 156.152344 C 285.597656 156.152344 269.101562 162.542969 256 173.960938 C 242.898438 162.542969 226.40625 156.152344 209.421875 156.152344 C 168.550781 156.152344 135.300781 192.109375 135.300781 236.304688 C 135.300781 261.714844 155.003906 292.824219 193.859375 328.769531 C 221.761719 354.582031 249.222656 373.332031 250.375 374.117188 C 252.074219 375.273438 254.035156 375.847656 256 375.847656 C 257.960938 375.847656 259.925781 375.273438 261.621094 374.117188 C 262.777344 373.332031 290.234375 354.582031 318.140625 328.769531 C 357 292.824219 376.699219 261.714844 376.699219 236.304688 Z M 256 353.660156 C 223.367188 330.433594 155.300781 274.140625 155.300781 236.304688 C 155.300781 203.136719 179.578125 176.148438 209.421875 176.148438 C 224.269531 176.148438 238.128906 182.714844 248.4375 194.636719 C 250.335938 196.832031 253.097656 198.09375 256 198.09375 C 258.90625 198.09375 261.664062 196.832031 263.5625 194.636719 C 273.875 182.714844 287.730469 176.148438 302.578125 176.148438 C 332.421875 176.148438 356.699219 203.136719 356.699219 236.304688 C 356.703125 274.101562 288.628906 330.421875 256 353.660156 Z M 256 353.660156 " style=" stroke:none;fill-rule:nonzero;fill:rgb(0%,0%,0%);fill-opacity:1;" />
<path d="M 326.703125 226.304688 C 321.5 226.304688 317.222656 230.28125 316.746094 235.359375 C 316.027344 240.757812 319.769531 245.757812 325.175781 246.570312 C 325.675781 246.644531 326.175781 246.679688 326.671875 246.679688 C 331.539062 246.679688 335.804688 243.121094 336.546875 238.164062 C 336.6875 237.242188 336.703125 236.660156 336.703125 236.304688 C 336.703125 230.78125 332.222656 226.304688 326.703125 226.304688 Z M 326.703125 226.304688 " style=" stroke:none;fill-rule:nonzero;fill:rgb(0%,0%,0%);fill-opacity:1;" />
<path d="M 313.835938 260.761719 C 309.644531 257.167969 303.332031 257.648438 299.734375 261.84375 C 293.753906 268.816406 286.4375 276.332031 277.988281 284.183594 C 270.992188 290.679688 263.261719 297.359375 255.007812 304.035156 C 250.714844 307.507812 250.050781 313.804688 253.523438 318.097656 C 255.5 320.539062 258.390625 321.808594 261.304688 321.808594 C 263.511719 321.808594 265.734375 321.078125 267.585938 319.582031 C 276.191406 312.621094 284.269531 305.640625 291.597656 298.832031 C 300.601562 290.472656 308.445312 282.40625 314.914062 274.863281 C 318.511719 270.671875 318.027344 264.355469 313.835938 260.761719 Z M 313.835938 260.761719 " style=" stroke:none;fill-rule:nonzero;fill:rgb(0%,0%,0%);fill-opacity:1;" />
</g>
</svg>