<svg height="512pt" viewBox="-11 0 512 512" width="512pt" xmlns="http://www.w3.org/2000/svg"><path d="m302.878906 57.671875c0 31.738281-25.789062 57.578125-57.527344 57.65625h-.140624c-31.800782 0-57.671876-25.867187-57.671876-57.65625 0-31.800781 25.871094-57.671875 57.671876-57.671875h.140624c31.738282.078125 57.527344 25.921875 57.527344 57.671875zm0 0" fill="#ff7a53"/><path d="m245.351562 115.328125v-115.328125c31.738282.078125 57.527344 25.921875 57.527344 57.671875 0 31.738281-25.789062 57.578125-57.527344 57.65625zm0 0" fill="#ff3b62"/><path d="m455.160156 298.488281-61.140625 213.511719h-297.621093l-61.136719-213.511719zm0 0" fill="#c06100"/><path d="m455.160156 298.488281-61.140625 213.511719h-148.667969v-213.511719zm0 0" fill="#9a4c00"/><g fill="#fff5cb"><path d="m180.648438 512h-30.289063l-27.667969-196.410156 29.707032-4.191406zm0 0"/><path d="m230.210938 313.488281h30v198.511719h-30zm0 0"/><path d="m367.730469 315.589844-27.671875 196.410156h-30.289063l28.25-200.601562zm0 0"/></g><path d="m245.351562 313.488281h14.859376v198.511719h-14.859376zm0 0" fill="#ffdba9"/><path d="m367.730469 315.589844-27.671875 196.410156h-30.289063l28.25-200.601562zm0 0" fill="#ffdba9"/><path d="m490.699219 270.46875c0 27.542969-22.328125 49.859375-49.859375 49.859375h-390.980469c-13.769531 0-26.230469-5.578125-35.257813-14.597656-9.023437-9.03125-14.601562-21.492188-14.601562-35.261719 0-14.730469 6.390625-27.957031 16.539062-37.089844 8.839844-7.9375 20.511719-12.769531 33.320313-12.769531h3.230469c1.199218-5.839844 2.660156-11.589844 4.359375-17.230469 11.339843-37.5 33.601562-70.269531 63.089843-94.589844 33.929688-27.980468 77.410157-44.789062 124.8125-44.789062 94.808594 0 173.917969 67.230469 192.257813 156.609375h3.230469c13.769531 0 26.230468 5.582031 35.25 14.609375 9.03125 9.019531 14.609375 21.480469 14.609375 35.25zm0 0" fill="#ffdba9"/><path d="m490.699219 270.46875c0 27.542969-22.328125 49.859375-49.859375 49.859375h-195.488282v-256.328125c94.808594 0 173.917969 67.230469 192.257813 156.609375h3.230469c13.769531 0 26.230468 5.582031 35.25 14.609375 9.03125 9.019531 14.609375 21.480469 14.609375 35.25zm0 0" fill="#ffbdad"/><path d="m163.011719 140.035156h30.667969v30.667969h-30.667969zm0 0" fill="#c06100"/><path d="m229.878906 103.671875h30.660156v30.65625h-30.660156zm0 0" fill="#c06100"/><path d="m296.742188 140.035156h30.664062v30.667969h-30.664062zm0 0" fill="#9a4c00"/><path d="m352.742188 203.046875h30.664062v30.664063h-30.664062zm0 0" fill="#ff3b62"/><path d="m329.480469 203.378906v30h-312.941407c8.839844-7.9375 20.511719-12.769531 33.320313-12.769531h3.230469c1.199218-5.839844 2.660156-11.589844 4.359375-17.230469zm0 0" fill="#ff7a53"/><path d="m245.351562 103.671875h15.1875v30.65625h-15.1875zm0 0" fill="#9a4c00"/><path d="m245.351562 203.378906h84.128907v30h-84.128907zm0 0" fill="#ff3b62"/></svg>