<svg height="512pt" viewBox="0 -67 512 511" width="512pt" xmlns="http://www.w3.org/2000/svg"><path d="m23.910156 104.109375h464.179688v236.257813h-464.179688zm0 0" fill="#ff9a00"/><path d="m256 104.109375h232.089844v236.257813h-232.089844zm0 0" fill="#e67500"/><path d="m241.09375 56.277344c-.121094-1.429688-2.578125-35.199219 33.566406-55.777344l14.84375 26.070312c-19.332031 11.007813-18.535156 26.988282-18.519531 27.148438zm0 0" fill="#60dd4e"/><path d="m301.667969 83.375c0 25.183594-20.488281 45.671875-45.671875 45.671875-25.175782 0-45.664063-20.488281-45.664063-45.671875 0-25.175781 20.488281-45.664062 45.664063-45.664062 25.183594 0 45.671875 20.488281 45.671875 45.664062zm0 0" fill="#ff7a53"/><path d="m301.667969 83.375c0 25.183594-20.488281 45.671875-45.671875 45.671875v-91.335937c25.183594 0 45.671875 20.488281 45.671875 45.664062zm0 0" fill="#ff3b62"/><path d="m488.089844 104.109375v85.597656h-53.191406c-3.089844 0-5.597657 2.519531-5.597657 5.609375v45.75c0 24.089844-19.609375 43.691406-43.699219 43.691406-24.089843 0-43.691406-19.601562-43.691406-43.691406v-36.847656c0-8-6.511718-14.511719-14.511718-14.511719s-14.507813 6.511719-14.507813 14.511719v10.039062c0 23.511719-19.121094 42.628907-42.628906 42.628907-5 0-9.800781-.859375-14.261719-2.449219-16.519531-5.878906-28.378906-21.667969-28.378906-40.179688v-18.941406c0-3.089844-2.511719-5.609375-5.601563-5.609375h-198.109375v-85.597656zm0 0" fill="#ffdba9"/><path d="m0 310.367188h512v68.011718h-512zm0 0" fill="#b38a65"/><path d="m270.261719 256.886719c-5 0-9.800781-.859375-14.261719-2.449219v-150.328125h232.089844v85.597656h-53.191406c-3.089844 0-5.597657 2.519531-5.597657 5.609375v45.75c0 24.089844-19.609375 43.691406-43.699219 43.691406-24.089843 0-43.691406-19.601562-43.691406-43.691406v-36.847656c0-8-6.511718-14.511719-14.511718-14.511719s-14.507813 6.511719-14.507813 14.511719v10.039062c0 23.511719-19.121094 42.628907-42.628906 42.628907zm0 0" fill="#ffbdad"/><path d="m256 310.367188h256v68.011718h-256zm0 0" fill="#8a6746"/></svg>