<svg height="512pt" viewBox="-22 0 512 512.00068" width="512pt" xmlns="http://www.w3.org/2000/svg"><path d="m255.179688 468.761719h-208.933594c-19.988282 0-36.191406-16.203125-36.191406-36.1875v-1.945313c0-19.984375 16.203124-36.1875 36.191406-36.1875h208.933594c19.988281 0 36.191406 16.203125 36.191406 36.1875v1.945313c0 19.984375-16.203125 36.1875-36.191406 36.1875zm0 0" fill="#ffcb7c"/><path d="m109.5 468.839844c0 13.765625-8.847656 26.414062-21.789062 31.121094-12.972657 4.71875-27.863282.675781-36.714844-9.886719-8.949219-10.675781-10.175782-26.320313-3-38.261719 7.082031-11.785156 21.085937-18.0625 34.597656-15.5 15.425781 2.925781 26.90625 16.839844 26.90625 32.527344zm0 0" fill="#d1ddde"/><path d="m259.90625 468.839844c0 13.765625-8.847656 26.414062-21.789062 31.121094-12.972657 4.71875-27.863282.675781-36.714844-9.886719-8.945313-10.675781-10.171875-26.320313-2.996094-38.261719 7.078125-11.785156 21.085938-18.0625 34.597656-15.5 15.425782 2.925781 26.902344 16.839844 26.902344 32.527344zm0 0" fill="#d1ddde"/><path d="m69.53125 394.519531v-39.636719c0-4.976562 4.035156-9.011718 9.011719-9.011718h59.859375c30.878906 0 60.359375 12.878906 81.335937 35.539062l12.15625 13.125zm0 0" fill="#b0e7f8"/><path d="m345.175781 24.683594c-23.769531-19.5-58.683593-19.5-82.453125 0-22.378906 18.355468-31.988281 52.578125-23.644531 80.109375 9.574219 31.601562 38.546875 56.960937 63.117187 77.199219.582032.480468 1.167969.957031 1.753907 1.4375.585937-.480469 1.171875-.957032 1.753906-1.4375 24.210937-19.957032 51.59375-42.6875 62.042969-73.398438 9.601562-28.226562.734375-64.792969-22.570313-83.910156zm0 0" fill="#f5737f"/><path d="m332.179688 77.710938c0 15.59375-12.636719 28.234374-28.230469 28.234374s-28.230469-12.640624-28.230469-28.234374c0-15.589844 12.636719-28.230469 28.230469-28.230469s28.230469 12.640625 28.230469 28.230469zm0 0" fill="#fafafa"/><path d="m220.945312 312.667969h56.386719c12.910157 0 12.929688-20.109375 0-20.109375h-56.386719c-27.1875 0-49.3125-22.121094-49.3125-49.3125s22.121094-49.3125 49.3125-49.3125h82.886719c3.351563 0 6.3125-1.644532 8.140625-4.167969.054688-.046875.109375-.089844.164063-.132813 14.246093-11.71875 28.5625-23.503906 40.714843-37.378906 12.152344-13.875 22.152344-30.0625 26.363282-48.023437 4.34375-18.515625 1.910156-38.589844-5.441406-56.023438-6.058594-14.367187-15.441407-27.589843-28.605469-36.234375-14.640625-9.609375-32.859375-13.636718-50.199219-11.34375-21.34375 2.824219-41.148438 15.128906-53.597656 32.695313-12.449219 17.566406-17.503906 40.085937-14.320313 61.378906 2.996094 20.058594 12.925781 38.601563 25.734375 54.328125 7.3125 8.980469 15.554688 17.121094 24.238282 24.792969h-56.074219c-38.28125 0-69.421875 31.144531-69.421875 69.421875 0 38.28125 31.140625 69.421875 69.417968 69.421875zm27.753907-210.792969c-7.289063-24.054688 1.480469-53.898438 20.398437-69.417969 10.097656-8.28125 22.476563-12.421875 34.851563-12.421875 12.339843 0 24.679687 4.117188 34.761719 12.347656l.179687.148438c19.324219 15.929688 27.816406 47.890625 19.335937 72.824219-8.964843 26.351562-32.390624 46.921875-54.265624 65.035156-23.144532-19.335937-47.21875-41.976563-55.261719-68.515625zm0 0"/><path d="m394.398438 292.558594h-36.964844c-12.910156 0-12.929688 20.109375 0 20.109375h36.964844c30.039062 0 54.476562 24.441406 54.476562 54.480469 0 30.035156-24.4375 54.476562-54.476562 54.476562h-94.0625c-4.621094-21.21875-23.542969-37.160156-46.125-37.160156h-17.941407l-9.152343-9.886719c-22.808594-24.632813-55.144532-38.761719-88.714844-38.761719h-59.859375c-10.511719 0-19.066407 8.554688-19.066407 19.066406v29.582032h-12.261718c-26.035156 0-47.214844 21.179687-47.214844 47.214844 0 21.175781 14.207031 39.558593 34.015625 45.332031 3.832031 19.902343 21.371094 34.988281 42.375 34.988281 20.339844 0 37.421875-14.140625 41.96875-33.105469h66.472656c4.546875 18.964844 21.632813 33.105469 41.96875 33.105469 21.207031 0 38.875-15.378906 42.476563-35.566406 15.792968-5.292969 27.5625-18.558594 31.066406-34.699219h94.054688c41.125 0 74.585937-33.460937 74.585937-74.585937 0-41.128907-33.460937-74.589844-74.585937-74.589844zm-314.8125 63.367187h58.816406c26.222656 0 51.542968 10.34375 70.273437 28.539063h-129.089843zm-3.191407 135.964844c-12.710937 0-23.054687-10.339844-23.054687-23.050781 0-12.714844 10.34375-23.054688 23.054687-23.054688 12.707031 0 23.050781 10.339844 23.050781 23.054688 0 12.710937-10.34375 23.050781-23.050781 23.050781zm150.40625 0c-12.710937 0-23.050781-10.339844-23.050781-23.050781 0-12.714844 10.339844-23.054688 23.050781-23.054688 12.710938 0 23.050781 10.339844 23.050781 23.054688 0 12.710937-10.339843 23.050781-23.050781 23.050781zm40.933594-36.714844c-5.730469-17.121093-21.90625-29.5-40.933594-29.5-20.335937 0-37.421875 14.144531-41.964843 33.109375h-66.476563c-4.542969-18.964844-21.628906-33.109375-41.964844-33.109375-19.320312 0-35.714843 12.761719-41.203125 30.296875-8.988281-4.472656-15.078125-13.785156-15.078125-24.296875 0-14.945312 12.15625-27.105469 27.105469-27.105469h22.316406l162.359375.019532c.082031 0 .160157-.015625.242188-.019532h22.078125c14.945312 0 27.105468 12.160157 27.105468 27.105469-.003906 9.9375-5.382812 18.78125-13.585937 23.5zm0 0"/><path d="m342.234375 77.710938c0-21.109376-17.171875-38.285157-38.285156-38.285157-21.109375 0-38.285157 17.175781-38.285157 38.285157 0 21.113281 17.175782 38.289062 38.285157 38.289062 21.113281 0 38.285156-17.175781 38.285156-38.289062zm-56.460937 0c0-10.023438 8.152343-18.175782 18.175781-18.175782 10.023437 0 18.175781 8.152344 18.175781 18.175782 0 10.023437-8.152344 18.179687-18.175781 18.179687-10.023438 0-18.175781-8.15625-18.175781-18.179687zm0 0"/><path d="m310.859375 295.5c-3.867187 3.867188-3.863281 10.351562 0 14.21875s10.355469 3.867188 14.21875 0c3.753906-3.757812 3.875-9.980469.296875-13.894531-3.800781-4.15625-10.523438-4.3125-14.515625-.324219-1.871094 1.871094 1.871094-1.871094 0 0zm0 0"/><path d="m226.800781 458.78125c-5.460937 0-10.054687 4.59375-10.054687 10.054688 0 5.464843 4.59375 10.054687 10.054687 10.054687 5.308594 0 9.800781-4.324219 10.035157-9.613281.25-5.625-4.394532-10.496094-10.035157-10.496094zm0 0"/><path d="m76.390625 458.78125c-5.460937 0-10.054687 4.59375-10.054687 10.054688 0 5.464843 4.59375 10.054687 10.054687 10.054687 5.308594 0 9.800781-4.324219 10.035156-9.613281.25-5.625-4.394531-10.496094-10.035156-10.496094zm0 0"/></svg>