<?xml version="1.0" encoding="iso-8859-1"?>
<!-- Generator: Adobe Illustrator 21.0.0, SVG Export Plug-In . SVG Version: 6.00 Build 0)  -->
<svg xmlns="http://www.w3.org/2000/svg" xmlns:xlink="http://www.w3.org/1999/xlink" version="1.1" id="Capa_1" x="0px" y="0px" viewBox="0 0 59 59" style="enable-background:new 0 0 59 59;" xml:space="preserve" width="512" height="512">
<g>
	<g>
		<path style="fill:#F5D0C7;" d="M36.947,13.727c5.51,0.866,10.362,4.109,13.27,8.869l1.439,2.871    c0.891,2.238,1.347,4.625,1.344,7.033l0,0c0.006,4.757-1.779,9.343-5,12.844l0,0V58.5h-7l-1.116-7.933    c-1.9,0.619-3.886,0.934-5.884,0.933H24c-2.021,0.002-4.029-0.318-5.949-0.95l0.065,0.021L17,58.5h-7V45.344l0,0    C6.779,41.843,4.994,37.257,5,32.5l0,0c-0.001-9.357,6.809-17.322,16.053-18.773H36.947z"/>
	</g>
	<g>
		<circle style="fill:#FFD200;" cx="29" cy="9.5" r="9"/>
	</g>
	<g>
		<polygon style="fill:#F5D0C7;" points="6.037,26.293 0,27.5 0,35.5 5.441,36.588   "/>
	</g>
	<g>
		<path style="fill:#EE9380;" d="M52,33.5v-2c1.105,0,2-0.895,2-2v-3h-2c-1.657,0-3-1.343-3-3s1.343-3,3-3h1c1.657,0,3,1.343,3,3v1    c0.552,0,1-0.448,1-1v-6h2v6c0,1.657-1.343,3-3,3v3C56,31.709,54.209,33.5,52,33.5z M52,22.5c-0.552,0-1,0.448-1,1s0.448,1,1,1h2    v-1c0-0.552-0.448-1-1-1H52z"/>
	</g>
	<g>
		<rect x="20" y="17.75" style="fill:#EE9380;" width="18" height="2"/>
	</g>
	<g>
		<path style="fill:#EE9380;" d="M28,35.5H17v-2h10V28c-0.169-3.19-2.88-5.646-6.071-5.5H17v-2h3.929C25.379,20.5,29,23.864,29,28    v6.5C29,35.052,28.552,35.5,28,35.5z"/>
	</g>
	<g>
		<rect x="11" y="24.5" style="fill:#EE9380;" width="4" height="2"/>
	</g>
	<g>
		<path style="fill:#8A0F00;" d="M33,7.722V7.454c-0.13-1.583-1.414-2.824-3-2.9V3.5h-2v1.051c-1.586,0.076-2.87,1.317-3,2.9    c0.14,1.568,1.403,2.8,2.974,2.9l1.759,0.261C30.526,10.729,31,11.175,31,11.539c0,0.45-0.7,0.953-1.638,0.953h-0.724    c-0.938,0-1.638-0.5-1.638-0.953V11.27h-2v0.269c0.13,1.583,1.414,2.824,3,2.9v1.05h2v-1.05c1.586-0.076,2.87-1.317,3-2.9    c-0.138-1.57-1.401-2.805-2.974-2.906l-1.759-0.26C27.474,8.267,27,7.817,27,7.454c0-0.45,0.7-0.954,1.638-0.954h0.724    C30.3,6.5,31,7,31,7.454v0.268L33,7.722z"/>
	</g>
</g>















</svg>
